<?xml version="1.0" standalone="no"?>
<!DOCTYPE svg PUBLIC "-//W3C//DTD SVG 20010904//EN"
 "http://www.w3.org/TR/2001/REC-SVG-20010904/DTD/svg10.dtd">
<svg version="1.0" xmlns="http://www.w3.org/2000/svg"
 width="566.000000pt" height="558.000000pt" viewBox="0 0 566.000000 558.000000"
 preserveAspectRatio="xMidYMid meet">

<g transform="translate(0.000000,558.000000) scale(0.100000,-0.100000)"
fill="#000000" stroke="none">
<path d="M2610 5015 c-1091 -122 -1960 -995 -2075 -2085 -76 -709 166 -1404
662 -1907 382 -388 886 -632 1423 -688 723 -77 1425 173 1934 690 719 729 883
1856 400 2757 -298 555 -794 962 -1399 1147 -293 90 -633 121 -945 86z m600
-290 c201 -34 365 -86 554 -175 477 -223 864 -644 1048 -1140 88 -237 130
-470 130 -726 0 -518 -177 -981 -526 -1379 -256 -292 -646 -530 -1021 -624
-332 -83 -701 -85 -1019 -5 -592 148 -1078 540 -1355 1093 -213 423 -270 941
-155 1406 92 373 278 702 549 971 223 221 451 367 750 480 144 55 254 80 510
118 70 10 444 -3 535 -19z"/>
<path d="M2735 4680 c-789 -49 -1480 -577 -1753 -1340 -258 -718 -66 -1542
487 -2089 301 -298 670 -482 1116 -557 137 -23 443 -23 580 0 447 75 827 265
1121 561 383 386 594 891 594 1425 0 368 -96 709 -293 1043 -152 256 -425 526
-687 679 -364 212 -746 303 -1165 278z m-190 -2211 c18 -18 18 -20 2 -36 -15
-16 -18 -16 -36 1 -22 20 -51 15 -51 -7 0 -8 18 -22 41 -32 68 -31 89 -88 51
-135 -25 -31 -95 -32 -125 -2 -20 20 -20 22 -3 41 17 19 18 19 37 0 23 -23 33
-24 50 -3 15 18 2 32 -60 66 -45 24 -59 60 -37 93 31 48 90 54 131 14z m-1025
1 c17 -17 20 -33 20 -105 0 -111 -12 -125 -105 -125 l-65 0 0 125 0 125 65 0
c52 0 69 -4 85 -20z m140 -105 l0 -125 -25 0 -25 0 0 125 0 125 25 0 25 0 0
-125z m126 50 c10 -41 20 -75 24 -75 3 0 14 34 25 75 16 67 21 75 42 75 13 0
23 -3 23 -6 0 -4 -14 -60 -32 -125 -30 -115 -32 -119 -58 -119 -26 0 -28 4
-54 103 -14 56 -29 112 -32 125 -5 18 -2 22 19 22 23 0 27 -6 43 -75z m310
-52 l32 -123 -24 0 c-17 0 -25 7 -30 25 -5 20 -12 25 -39 25 -27 0 -34 -5 -39
-25 -5 -18 -13 -25 -30 -25 l-24 0 19 73 c53 191 48 179 76 175 24 -3 28 -11
59 -125z m167 70 l25 -58 1 58 c1 54 2 57 26 57 l25 0 0 -125 c0 -124 0 -125
-23 -125 -19 0 -29 12 -53 63 l-28 62 -4 -62 c-3 -55 -6 -63 -22 -63 -19 0
-20 8 -20 125 0 124 0 125 23 125 19 0 29 -11 50 -57z m417 7 l0 -50 35 0 35
0 0 50 c0 47 2 50 25 50 l25 0 0 -125 0 -125 -25 0 c-24 0 -25 3 -25 55 l0 55
-35 0 -35 0 0 -55 c0 -52 -1 -55 -25 -55 l-25 0 0 125 0 125 25 0 c23 0 25 -3
25 -50z m240 -45 c0 -83 2 -96 19 -105 25 -13 27 -13 45 6 12 12 16 37 16 105
l0 89 26 0 26 0 -4 -105 c-3 -93 -6 -107 -26 -127 -17 -18 -33 -23 -69 -22
-72 2 -83 22 -83 150 l0 104 25 0 c25 0 25 0 25 -95z m425 24 c11 -39 22 -72
26 -74 3 -2 16 29 29 70 22 70 25 75 52 75 l28 0 0 -125 c0 -117 -1 -125 -20
-125 -17 0 -19 8 -22 73 l-3 72 -23 -72 c-17 -54 -27 -73 -40 -73 -14 0 -23
17 -38 73 l-19 72 -3 -72 c-3 -65 -5 -73 -22 -73 -19 0 -20 8 -20 125 l0 125
28 0 c26 0 29 -5 47 -71z m355 51 c0 -17 -7 -20 -45 -20 -43 0 -45 -1 -45 -30
0 -28 3 -30 36 -30 31 0 35 -3 32 -22 -2 -18 -11 -24 -35 -26 -29 -3 -33 -7
-33 -33 0 -28 2 -29 45 -29 38 0 45 -3 45 -20 0 -18 -7 -20 -70 -20 l-70 0 0
125 0 125 70 0 c63 0 70 -2 70 -20z m110 -30 l0 -50 35 0 35 0 0 50 c0 47 2
50 25 50 l25 0 0 -125 0 -125 -25 0 c-24 0 -25 3 -25 55 l0 55 -35 0 -35 0 0
-55 c0 -52 -1 -55 -25 -55 l-25 0 0 125 0 125 25 0 c23 0 25 -3 25 -50z m340
31 c0 -14 -8 -21 -27 -23 l-28 -3 -3 -102 c-3 -102 -3 -103 -27 -103 -25 0
-25 0 -25 105 l0 105 -30 0 c-23 0 -30 4 -30 20 0 18 7 20 85 20 77 0 85 -2
85 -19z m171 -23 c6 -24 22 -80 34 -126 l22 -83 -26 3 c-18 2 -27 10 -29 26
-3 18 -10 22 -37 22 -27 0 -34 -5 -39 -25 -5 -19 -13 -25 -32 -25 -18 0 -25 4
-21 14 3 8 18 60 33 117 14 57 29 107 31 112 2 4 15 7 28 7 20 0 26 -8 36 -42z
m-2603 -535 c-36 -4 -38 -6 -38 -39 0 -32 2 -34 38 -36 l37 -1 -37 -4 c-36 -4
-37 -5 -41 -51 -2 -26 -4 -5 -5 46 l-2 92 43 -2 42 -1 -37 -4z m103 -156 c9
-6 24 -7 33 -4 13 5 16 23 18 89 l2 83 3 -78 c4 -83 -5 -107 -38 -107 -37 0
-49 27 -47 108 l2 77 5 -79 c4 -57 10 -82 22 -89z m157 -10 c25 -4 24 -4 -5
-6 l-33 -1 2 93 2 92 3 -87 c4 -86 4 -87 31 -91z m115 0 c31 -4 31 -4 -5 -5
l-38 -2 2 93 2 92 3 -87 4 -87 32 -4z m165 162 c-30 -17 -21 -47 22 -74 29
-18 40 -32 40 -50 0 -24 -25 -46 -52 -44 -7 0 -1 5 15 11 43 15 37 53 -13 78
-32 17 -40 26 -40 49 0 32 7 41 29 41 14 -1 13 -2 -1 -11z m52 -4 c6 -8 10
-20 7 -27 -4 -8 -6 -7 -6 4 -1 9 -9 22 -18 27 -10 6 -13 11 -7 11 6 0 17 -7
24 -15z m113 8 c-22 -4 -23 -10 -25 -91 l-2 -87 -3 87 c-4 80 -5 87 -26 91
-12 2 1 4 28 4 28 0 40 -2 28 -4z m92 -3 c3 -5 1 -10 -4 -10 -6 0 -11 5 -11
10 0 6 2 10 4 10 3 0 8 -4 11 -10z m98 -10 c-3 -12 -8 -19 -11 -16 -5 6 5 36
12 36 2 0 2 -9 -1 -20z m126 -124 c-4 -28 -6 -11 -6 54 0 79 1 86 6 41 4 -30
4 -73 0 -95z m52 109 l-21 -36 20 -39 c11 -22 20 -45 20 -52 -1 -7 -10 8 -22
34 -11 26 -24 45 -29 42 -15 -9 -10 5 17 46 33 50 43 53 15 5z m207 27 c7 -5
15 -33 17 -63 l4 -54 -8 47 c-12 60 -17 68 -47 68 -23 0 -24 -2 -24 -80 0 -73
2 -80 19 -80 11 0 27 10 35 22 13 18 16 19 16 6 0 -20 -29 -38 -59 -38 -20 0
-21 6 -21 90 l0 90 28 0 c15 0 33 -4 40 -8z m115 1 c-42 -4 -43 -5 -43 -39 0
-33 1 -34 43 -36 l42 -1 -42 -4 c-42 -4 -43 -5 -43 -39 0 -33 1 -34 40 -34 22
0 40 -4 40 -10 0 -5 -20 -10 -45 -10 l-45 0 0 90 0 90 48 -2 47 -1 -42 -4z
m265 0 c-36 -4 -38 -6 -38 -39 0 -32 2 -34 38 -36 l37 -1 -37 -4 c-36 -4 -38
-6 -38 -39 0 -32 2 -34 35 -34 19 0 35 -4 35 -10 0 -5 -18 -10 -40 -10 l-40 0
0 90 0 90 43 -2 42 -1 -37 -4z m125 -166 c31 -4 31 -4 -5 -5 l-38 -2 2 93 2
92 3 -87 4 -87 32 -4z m145 161 c7 -7 12 -39 12 -74 0 -65 -15 -94 -48 -94
-12 0 -9 4 8 13 23 12 25 18 25 82 l0 70 -30 0 -30 0 0 -77 c0 -42 -3 -74 -7
-71 -10 5 -11 147 -1 156 11 11 58 8 71 -5z m144 -13 c16 -36 -3 -74 -41 -81
-26 -5 -30 -12 -34 -43 -2 -20 -4 6 -5 57 l-2 92 35 0 c28 0 38 -5 47 -25z
m101 18 c-42 -4 -43 -5 -43 -39 0 -33 1 -34 43 -36 l42 -1 -42 -4 c-42 -4 -43
-5 -43 -39 0 -33 1 -34 40 -34 22 0 40 -5 40 -11 0 -6 -17 -9 -42 -7 l-43 3
-3 88 -3 87 48 -2 48 -1 -42 -4z m164 -23 c15 -25 15 -25 -2 -2 -11 14 -28 22
-46 22 -27 0 -29 -3 -29 -40 0 -38 2 -40 30 -40 17 0 33 7 39 18 6 9 11 12 11
6 0 -6 -6 -17 -14 -24 -13 -10 -12 -16 5 -43 10 -18 19 -36 19 -42 0 -5 -11 8
-23 30 -13 24 -31 41 -44 43 -18 3 -22 -2 -26 -35 -2 -21 -4 2 -5 50 l-2 88
36 -3 c27 -2 41 -10 51 -28z m-860 -2 c-3 -8 -6 -5 -6 6 -1 11 2 17 5 13 3 -3
4 -12 1 -19z m80 -10 c-3 -8 -6 -5 -6 6 -1 11 2 17 5 13 3 -3 4 -12 1 -19z
m-642 -129 c11 -4 15 -8 8 -8 -35 -2 -43 11 -41 68 l1 56 6 -54 c5 -42 11 -56
26 -62z m582 69 c-3 -8 -6 -5 -6 6 -1 11 2 17 5 13 3 -3 4 -12 1 -19z m-670
-28 c4 -12 3 -13 -5 -1 -6 8 -21 12 -41 9 -17 -2 -31 -1 -31 4 0 16 73 4 77
-12z m-298 -33 c1 -5 -3 -5 -9 -2 -5 3 -10 16 -9 28 0 21 1 21 9 2 5 -11 9
-24 9 -28z m421 6 c-11 -17 -11 -17 -6 0 3 10 6 24 7 30 0 9 2 9 5 0 3 -7 0
-20 -6 -30z m569 16 c1 8 4 12 7 8 3 -3 2 -16 -2 -29 -7 -22 -7 -22 -15 -3
-11 28 -10 56 1 30 5 -12 9 -14 9 -6z"/>
<path d="M2439 2453 c-13 -16 -12 -17 4 -4 9 7 17 15 17 17 0 8 -8 3 -21 -13z"/>
<path d="M2500 2466 c0 -2 7 -7 16 -10 8 -3 12 -2 9 4 -6 10 -25 14 -25 6z"/>
<path d="M2431 2412 c-1 -7 13 -21 30 -30 63 -34 81 -54 76 -79 -3 -16 -1 -21
6 -14 20 20 -2 57 -52 84 -27 15 -52 33 -54 40 -4 9 -6 9 -6 -1z"/>
<path d="M1508 2375 c4 -77 2 -84 -19 -99 -13 -9 -18 -16 -12 -16 30 0 43 32
43 103 0 40 -4 77 -8 84 -4 6 -5 -26 -4 -72z"/>
<path d="M1417 2443 c-4 -3 -7 -39 -7 -80 0 -81 10 -95 56 -75 22 11 24 17 24
76 0 54 -3 67 -19 76 -23 12 -45 13 -54 3z"/>
<path d="M1846 2394 c-4 -14 -5 -28 -3 -31 3 -2 8 8 11 23 4 14 5 28 3 31 -3
2 -8 -8 -11 -23z"/>
<path d="M1762 2400 c0 -8 6 -31 13 -50 7 -19 13 -28 13 -20 0 8 -6 31 -13 50
-7 19 -13 28 -13 20z"/>
<path d="M1825 2321 c-4 -17 -11 -33 -16 -36 -11 -8 -12 -25 -1 -25 10 0 36
79 29 87 -3 2 -8 -9 -12 -26z"/>
<path d="M2023 2455 c-3 -9 -3 -18 -1 -21 3 -3 8 4 11 16 6 23 -1 27 -10 5z"/>
<path d="M2051 2410 c0 -8 4 -24 9 -35 5 -13 9 -14 9 -5 0 8 -4 24 -9 35 -5
13 -9 14 -9 5z"/>
<path d="M1986 2329 c-9 -34 -15 -64 -12 -66 2 -2 7 9 11 26 6 29 10 31 51 31
27 0 44 -5 44 -12 0 -6 2 -9 5 -6 3 3 1 16 -4 29 -5 13 -10 18 -10 12 -1 -8
-15 -13 -37 -13 -34 0 -35 1 -29 30 12 53 -1 32 -19 -31z"/>
<path d="M2026 2375 c-10 -26 -7 -35 9 -35 17 0 19 18 6 38 -7 11 -10 10 -15
-3z"/>
<path d="M2091 2274 c0 -11 3 -14 6 -6 3 7 2 16 -1 19 -3 4 -6 -2 -5 -13z"/>
<path d="M2211 2467 c-1 -10 98 -207 104 -207 3 0 4 48 3 108 l-2 107 -4 -95
-3 -95 -49 95 c-27 52 -49 92 -49 87z"/>
<path d="M2654 2365 c0 -60 1 -86 3 -57 l4 52 54 0 54 0 4 -52 c2 -29 3 -3 3
57 0 61 -1 86 -3 58 l-4 -53 -54 0 -54 0 -4 53 c-2 28 -3 3 -3 -58z"/>
<path d="M2894 2385 c0 -49 1 -71 3 -48 2 23 2 64 0 90 -2 26 -3 8 -3 -42z"/>
<path d="M3022 2388 c-2 -73 -5 -91 -22 -108 -11 -11 -16 -20 -10 -20 5 0 17
11 25 24 12 18 15 44 12 107 l-3 84 -2 -87z"/>
<path d="M2912 2274 c10 -10 20 -16 22 -13 3 3 -5 11 -17 18 -21 13 -21 12 -5
-5z"/>
<path d="M3284 2365 c0 -60 1 -84 3 -52 2 32 2 81 0 110 -2 29 -3 3 -3 -58z"/>
<path d="M3417 2418 c-9 -29 -15 -54 -13 -56 2 -2 12 20 21 48 9 28 15 53 13
55 -2 3 -12 -19 -21 -47z"/>
<path d="M3454 2365 c0 -60 1 -84 3 -52 2 32 2 81 0 110 -2 29 -3 3 -3 -58z"/>
<path d="M3360 2291 c0 -5 5 -13 10 -16 6 -3 10 -2 10 4 0 5 -4 13 -10 16 -5
3 -10 2 -10 -4z"/>
<path d="M3584 2365 c0 -60 1 -87 3 -58 4 52 4 52 41 56 l37 4 -37 1 -37 2 -4
53 c-2 28 -3 3 -3 -58z"/>
<path d="M3784 2365 c0 -60 1 -86 3 -57 l4 52 54 0 54 0 4 -52 c2 -29 3 -3 3
57 0 61 -1 86 -3 58 l-4 -53 -54 0 -54 0 -4 53 c-2 28 -3 3 -3 -58z"/>
<path d="M4064 2365 c0 -60 1 -84 3 -52 2 32 2 81 0 110 -2 29 -3 3 -3 -58z"/>
<path d="M4275 2459 c-4 -6 -5 -12 -2 -15 2 -3 7 2 10 11 7 17 1 20 -8 4z"/>
<path d="M4291 2440 c0 -8 4 -24 9 -35 5 -13 9 -14 9 -5 0 8 -4 24 -9 35 -5
13 -9 14 -9 5z"/>
<path d="M4256 2404 c-4 -14 -5 -28 -3 -31 3 -2 8 8 11 23 4 14 5 28 3 31 -3
2 -8 -8 -11 -23z"/>
<path d="M4277 2383 c-13 -12 -7 -43 8 -43 8 0 15 6 15 13 0 18 -15 38 -23 30z"/>
<path d="M4237 2336 c-5 -15 -6 -31 -2 -34 3 -3 5 0 5 6 0 7 17 12 45 12 36 0
45 -4 46 -17 0 -10 3 -13 5 -7 3 6 0 22 -5 35 -5 13 -10 18 -10 12 -1 -21 -69
-16 -73 5 -3 12 -6 9 -11 -12z"/>
<path d="M4221 2274 c0 -11 3 -14 6 -6 3 7 2 16 -1 19 -3 4 -6 -2 -5 -13z"/>
<path d="M3720 1865 c0 -38 3 -45 19 -45 11 0 27 7 35 16 31 31 13 74 -31 74
-21 0 -23 -5 -23 -45z"/>
</g>
</svg>
